<svg version="1.1" id="Layer_1" xmlns="http://www.w3.org/2000/svg" xmlns:xlink="http://www.w3.org/1999/xlink" x="0px" y="0px"
	 width="100%" viewBox="0 0 1536 1024" enable-background="new 0 0 1536 1024" xml:space="preserve">
<path fill="none" opacity="1.000000" stroke="#000000" stroke-linecap="round" stroke-linejoin="round" stroke-width="7.000000"
	d="
M1008.000000,672.500000 
	C1008.000000,650.166687 1008.000000,627.833313 1008.000000,605.500000 
	C1008.000000,576.166687 1007.959229,546.833191 1008.047607,517.500122 
	C1008.059692,513.490601 1007.411926,510.892303 1002.492859,511.435333 
	C998.884094,511.833679 999.000244,508.982513 999.000183,506.500000 
	C998.999756,497.500000 998.835327,488.495575 999.076904,479.502075 
	C999.180969,475.629120 998.391235,473.398529 993.998230,473.986938 
	C991.008545,474.387360 989.887634,472.996094 989.955994,469.998993 
	C990.100464,463.668945 989.841614,457.327698 990.067139,451.002380 
	C990.179138,447.860687 989.270508,446.454895 985.999878,446.469849 
	C971.000183,446.538391 955.999817,446.538391 941.000122,446.469818 
	C937.729492,446.454865 936.816956,447.860413 936.933105,451.002472 
	C937.160767,457.160706 936.855347,463.338074 937.056824,469.498138 
	C937.169373,472.937012 935.927551,474.436218 932.500244,473.997955 
	C928.580688,473.496735 927.880798,475.608215 927.943542,479.001038 
	C928.109985,487.997955 927.917358,497.001129 928.040466,505.999451 
	C928.089966,509.619812 927.410461,512.037964 922.996094,511.534271 
	C919.276184,511.109863 918.987000,513.717163 918.991577,516.500000 
	C919.011353,528.500000 918.934937,540.500427 919.018311,552.499878 
	C919.101685,564.500427 919.333374,576.500000 919.500000,588.500000 
"/>
<path fill="none" opacity="1.000000" stroke="#000000" stroke-linecap="round" stroke-linejoin="round" stroke-width="7.000000"
	d="
M802.000000,625.500000 
	C802.000000,600.166687 802.000000,574.833313 802.000000,549.500000 
	C802.000000,527.166687 802.005554,504.833344 801.996033,482.500000 
	C801.993713,477.028870 801.971130,477.006073 796.500000,477.003937 
	C772.833313,476.994720 749.166687,476.994720 725.500000,477.003937 
	C720.028870,477.006073 720.004700,477.028839 720.003845,482.500000 
	C719.997070,527.500000 720.131897,572.500549 719.935547,617.499695 
	C719.856262,635.668884 721.240540,653.895020 718.500000,672.000000 
"/>
<path fill="none" opacity="1.000000" stroke="#000000" stroke-linecap="round" stroke-linejoin="round" stroke-width="7.000000"
	d="
M1152.500000,672.500000 
	C1151.368896,625.170044 1152.213623,577.833191 1152.029663,530.499878 
	C1151.882446,492.667114 1152.000000,454.833344 1152.000000,417.000000 
	C1152.000000,407.000000 1152.000000,407.000000 1142.000000,407.000000 
	C1122.833374,407.000000 1103.666626,406.993774 1084.500000,407.003937 
	C1079.060059,407.006805 1079.028687,407.060120 1079.000244,412.500000 
	C1078.998535,412.833344 1079.000000,413.166656 1079.000000,413.500000 
	C1079.000000,499.833344 1079.000000,586.166687 1079.000000,672.500000 
"/>
<path fill="none" opacity="1.000000" stroke="#000000" stroke-linecap="round" stroke-linejoin="round" stroke-width="7.000000"
	d="
M1229.500000,672.500000 
	C1229.833374,665.666687 1230.012329,658.819214 1230.634766,652.012329 
	C1230.754395,650.704590 1230.900024,649.329956 1230.973877,647.998535 
	C1231.684204,635.167664 1232.274780,622.329895 1233.019165,609.501099 
	C1233.590088,599.662231 1234.269165,589.828430 1235.014404,580.001099 
	C1236.251831,563.681519 1237.395020,547.363220 1238.137329,531.006226 
	C1238.575928,521.341553 1239.354858,511.656311 1240.179810,502.015381 
	C1241.220825,489.849579 1241.150024,477.612030 1242.893921,465.484741 
	C1243.744751,459.567566 1243.401001,453.483978 1243.727417,447.485168 
	C1244.170898,439.337891 1244.574585,431.127014 1245.219727,423.017487 
	C1246.161255,411.183441 1245.799316,399.210327 1248.071289,387.513855 
	C1249.503052,380.143219 1245.793945,374.052307 1243.929565,367.520081 
	C1241.906616,360.431488 1239.192261,353.542725 1237.053955,346.483643 
	C1235.808228,342.371002 1237.005127,341.038452 1241.500122,341.017914 
	C1253.166504,340.964600 1264.833374,341.000000 1276.500000,341.000000 
	C1282.166626,341.000000 1287.833862,340.953888 1293.499878,341.015137 
	C1297.729736,341.060913 1299.433105,342.861084 1297.918457,346.465729 
	C1293.595703,356.753113 1292.902344,368.284515 1286.986450,377.991730 
	C1285.935181,379.716736 1287.231201,381.292175 1287.075439,383.006836 
	C1286.225586,392.362396 1287.848999,401.661255 1288.196411,410.992706 
	C1288.599365,421.821777 1289.543945,432.650421 1290.139282,443.492371 
	C1290.734131,454.325897 1291.536621,465.151428 1292.146973,475.991730 
	C1292.747803,486.658356 1293.563477,497.314880 1294.143921,507.992188 
	C1294.705688,518.325562 1295.537354,528.650269 1296.138672,538.991943 
	C1296.778076,549.992065 1297.542969,560.984375 1298.146118,571.992004 
	C1298.721680,582.491882 1299.184326,593.046631 1300.296875,603.468323 
	C1301.061279,610.628235 1300.454224,617.858643 1302.143311,625.083374 
	C1303.215820,629.670837 1302.410522,634.975952 1302.858887,640.012573 
	C1303.819580,650.804871 1304.000000,661.666687 1304.500000,672.500000 
"/>
<path fill="none" opacity="1.000000" stroke="#000000" stroke-linecap="round" stroke-linejoin="round" stroke-width="7.000000"
	d="
M905.000000,588.500000 
	C905.000000,530.166687 905.000000,471.833344 905.000000,413.500000 
	C905.000000,407.000000 905.000000,407.000000 898.500000,407.000000 
	C882.166687,407.000000 865.833313,406.992889 849.500000,407.003937 
	C844.028870,407.007629 844.004700,407.028839 844.003845,412.500000 
	C843.996948,455.500000 844.000000,498.500000 844.000000,541.500000 
"/>
<path fill="none" opacity="1.000000" stroke="#000000" stroke-linecap="round" stroke-linejoin="round" stroke-width="7.000000"
	d="
M1381.000000,672.500000 
	C1381.000000,650.166687 1381.000000,627.833313 1381.000000,605.500000 
	C1381.000000,584.166687 1381.005615,562.833313 1380.995972,541.500000 
	C1380.993530,536.028870 1380.971191,536.010010 1375.500000,536.003906 
	C1364.000000,535.991028 1352.497437,536.137695 1341.001465,535.923462 
	C1337.103760,535.850891 1335.904297,537.108826 1335.925659,541.000427 
	C1336.068726,566.999634 1336.000000,593.000000 1336.000000,619.000000 
	C1336.000000,620.750305 1336.000000,622.500549 1336.000000,624.769714 
	C1324.875000,625.734314 1314.132568,624.209717 1303.500000,625.500000 
"/>
<path fill="none" opacity="1.000000" stroke="#000000" stroke-linecap="round" stroke-linejoin="round" stroke-width="7.000000"
	d="
M276.000000,672.500000 
	C275.928162,669.126160 275.790039,665.715088 277.050812,662.520081 
	C277.559204,661.231689 277.779602,660.190613 277.008301,658.994629 
	C275.715759,656.990479 276.000641,654.717224 276.000610,652.500000 
	C275.999847,595.000000 276.000702,537.500000 275.998932,480.000000 
	C275.998749,474.016235 275.991913,474.003998 270.000000,474.002228 
	C250.166672,473.996307 230.333328,474.000000 210.500000,474.000000 
	C203.928864,474.000000 204.091583,473.990936 204.454727,480.502533 
	C204.825882,487.157776 204.965866,493.833130 204.977264,500.500031 
	C205.029129,530.833252 205.004227,561.166687 204.996094,591.500000 
	C204.994629,596.971130 204.971176,596.984619 199.500000,596.996521 
	C192.833359,597.011047 186.166672,597.000000 179.500000,597.000000 
"/>
<path fill="none" opacity="1.000000" stroke="#000000" stroke-linecap="round" stroke-linejoin="round" stroke-width="7.000000"
	d="
M77.000000,673.750000 
	C89.503494,673.674744 102.013443,674.981689 114.524200,673.166809 
	C116.607384,672.864685 119.083221,674.041870 121.500122,674.032837 
	C138.166565,673.970520 154.833328,674.000000 171.500000,674.000000 
	C203.833328,674.000000 236.166672,674.000000 268.500000,674.000000 
	C288.666656,674.000000 308.833344,674.000000 329.000000,674.000000 
	C393.000000,674.000000 457.000153,674.057007 520.999756,673.898743 
	C526.501648,673.885132 531.989502,673.659729 537.502991,673.941223 
	C542.822449,674.212830 548.166687,674.000000 553.500000,674.000000 
	C595.833313,674.000000 638.166687,674.000000 680.500000,674.000000 
	C690.500000,674.000000 700.553467,674.635864 710.483276,673.800842 
	C718.565674,673.121094 726.490723,674.377686 734.502625,674.067688 
	C742.490662,673.758667 750.500000,674.000000 758.500000,674.000000 
	C825.500000,674.000000 892.500000,674.000000 959.500000,674.000000 
	C973.500000,674.000000 987.500000,674.000000 1001.500000,674.000000 
	C1014.833313,674.000000 1028.169312,674.167969 1041.499268,673.951233 
	C1054.000366,673.747986 1066.600708,673.016235 1078.985596,673.430664 
	C1097.005615,674.033691 1115.001343,673.668579 1133.001099,673.923401 
	C1155.496582,674.241943 1178.000000,674.000000 1200.500000,674.000000 
	C1207.833374,674.000000 1215.166626,674.000000 1222.500000,674.000000 
	C1247.166626,674.000000 1271.833374,674.000000 1296.500000,674.000000 
	C1322.500000,674.000000 1348.500000,674.000000 1374.500000,674.000000 
	C1387.500000,674.000000 1400.500000,674.000000 1413.500000,674.000000 
	C1427.333374,674.000000 1441.166748,674.021484 1454.999878,673.977600 
	C1457.167114,673.970703 1459.333374,673.666687 1461.500000,673.500000 
"/>
<path fill="none" opacity="1.000000" stroke="#000000" stroke-linecap="round" stroke-linejoin="round" stroke-width="7.000000"
	d="
M264.000000,472.500000 
	C265.093170,463.851166 264.305969,455.166107 264.471985,446.499451 
	C264.613068,439.134888 264.638123,439.000000 272.000000,439.000000 
	C291.500000,439.000000 311.001953,439.148560 330.498596,438.893005 
	C335.225311,438.831055 337.117798,440.780457 337.102173,445.500336 
	C336.937134,495.333130 337.007233,545.166687 336.978760,595.000000 
	C336.977325,597.500061 336.666656,600.000000 336.500000,602.500000 
"/>
<path fill="none" opacity="1.000000" stroke="#000000" stroke-linecap="round" stroke-linejoin="round" stroke-width="7.000000"
	d="
M1077.500000,470.500000 
	C1073.169067,470.269348 1068.805298,471.002533 1064.497803,470.009369 
	C1062.538086,469.557526 1061.181885,470.500854 1059.987061,471.989655 
	C1051.678223,482.342682 1043.417603,492.736786 1034.930420,502.942078 
	C1033.192871,505.031342 1032.989624,507.106171 1032.990845,509.500000 
	C1033.005005,539.166687 1033.000000,568.833313 1033.000000,598.500000 
"/>
<path fill="none" opacity="1.000000" stroke="#000000" stroke-linecap="round" stroke-linejoin="round" stroke-width="7.000000"
	d="
M1207.500000,672.500000 
	C1207.333374,670.833313 1207.024414,669.166931 1207.021606,667.499939 
	C1206.988281,647.166687 1207.000000,626.833313 1207.000000,606.500000 
	C1207.000000,580.833313 1207.004883,555.166687 1206.996094,529.500000 
	C1206.994141,524.029419 1206.971191,524.007935 1201.500000,524.004028 
	C1185.500000,523.992676 1169.500000,524.000000 1153.500000,524.000000 
"/>
<path fill="none" opacity="1.000000" stroke="#000000" stroke-linecap="round" stroke-linejoin="round" stroke-width="7.000000"
	d="
M765.000000,672.500000 
	C765.000000,658.666687 764.982178,644.833252 765.009399,631.000000 
	C765.019287,626.004333 765.275757,625.872009 770.502991,626.473938 
	C771.983398,626.644348 773.500000,626.500000 775.000000,626.500000 
	C791.333313,626.500000 807.666687,626.500000 824.000000,626.500000 
	C824.833313,626.500000 825.667847,626.529297 826.499817,626.495483 
	C835.000122,626.150330 834.849304,626.151306 835.062012,634.498413 
	C835.172424,638.830750 833.043701,644.301453 836.270630,647.198608 
	C839.104736,649.743042 844.336670,647.933533 848.500244,647.960754 
	C863.666321,648.059998 878.834595,647.893311 893.999146,648.073730 
	C897.875427,648.119812 899.116760,646.875183 899.073608,642.999207 
	C898.897095,627.167847 898.993774,611.333313 899.003662,595.500000 
	C899.006836,590.468201 901.140747,588.725037 906.003723,589.475769 
	C910.180176,590.120605 914.295776,590.545288 918.541931,589.125305 
	C920.861633,588.349670 923.366516,590.124146 926.001282,590.083313 
	C938.165039,589.894592 950.334412,590.091370 962.499268,589.941589 
	C965.928589,589.899475 967.071045,591.073853 967.056519,594.500244 
	C966.951172,619.333130 967.006775,644.166687 966.978760,669.000000 
	C966.977478,670.166870 966.666626,671.333313 966.499939,672.500000 
"/>
<path fill="none" opacity="1.000000" stroke="#000000" stroke-linecap="round" stroke-linejoin="round" stroke-width="6.000000"
	d="
M803.500000,543.000000 
	C824.417969,543.000000 845.335999,543.000000 866.825806,543.000000 
	C867.711121,577.987366 867.466248,612.495361 867.500000,647.000000 
"/>
<path fill="none" opacity="1.000000" stroke="#000000" stroke-linecap="round" stroke-linejoin="round" stroke-width="6.000000"
	d="
M150.000000,574.000000 
	C139.666672,574.000000 129.331329,574.113586 119.001213,573.931396 
	C115.865479,573.876099 114.465683,574.729980 114.470909,578.000061 
	C114.519928,608.666626 114.496056,639.333313 114.520950,670.000000 
	C114.521629,670.833435 114.833336,671.666687 115.000000,672.500000 
"/>
<path fill="none" opacity="1.000000" stroke="#000000" stroke-linecap="round" stroke-linejoin="round" stroke-width="8.000000"
	d="
M1267.750000,102.000000 
	C1267.666626,110.666664 1267.519531,119.333275 1267.511475,128.000015 
	C1267.482300,159.166656 1267.500000,190.333328 1267.500000,221.500000 
"/>
<path fill="none" opacity="1.000000" stroke="#000000" stroke-linecap="round" stroke-linejoin="round" stroke-width="7.000000"
	d="
M178.000000,672.500000 
	C178.000000,649.500000 178.000000,626.500000 178.000000,603.500000 
	C178.000000,586.166687 178.006775,568.833313 177.996017,551.500000 
	C177.992615,546.028870 177.971176,546.011230 172.500000,546.003845 
	C162.500015,545.990356 152.498215,546.107361 142.500977,545.941040 
	C139.066284,545.883850 137.852768,547.064148 137.941895,550.501526 
	C138.131927,557.829895 138.000000,565.166687 138.000000,572.500000 
"/>
<path fill="none" opacity="1.000000" stroke="#000000" stroke-linecap="round" stroke-linejoin="round" stroke-width="7.000000"
	d="
M1382.500000,599.500000 
	C1393.321045,600.466614 1404.167969,599.968933 1414.999512,599.914001 
	C1418.891357,599.894165 1420.101440,601.108521 1420.074829,605.000488 
	C1419.921509,627.499451 1420.000000,650.000000 1420.000000,672.500000 
"/>
<path fill="none" opacity="1.000000" stroke="#000000" stroke-linecap="round" stroke-linejoin="round" stroke-width="7.000000"
	d="
M625.000000,143.500000 
	C625.000000,178.500000 625.000000,213.500000 625.000000,248.500000 
"/>
<path fill="none" opacity="1.000000" stroke="#000000" stroke-linecap="round" stroke-linejoin="round" stroke-width="7.000000"
	d="
M1009.500000,600.000000 
	C1017.324402,599.456055 1025.239380,599.493530 1033.001343,599.471680 
	C1040.583008,599.450256 1048.335815,599.681763 1056.002686,599.907227 
	C1059.921997,600.022400 1060.029785,602.124878 1060.023682,605.000061 
	C1059.979492,625.499939 1059.986206,646.000000 1060.021851,666.499939 
	C1060.025391,668.500244 1060.333374,670.500000 1060.500000,672.500000 
"/>
<path fill="none" opacity="1.000000" stroke="#000000" stroke-linecap="round" stroke-linejoin="round" stroke-width="6.000000"
	d="
M414.500000,588.500000 
	C414.500000,609.333313 414.500000,630.166687 414.500000,651.000000 
"/>
<path fill="none" opacity="1.000000" stroke="#000000" stroke-linecap="round" stroke-linejoin="round" stroke-width="6.000000"
	d="
M388.000000,590.000000 
	C388.801270,591.603210 388.486664,593.325562 388.488312,595.000000 
	C388.506836,613.666687 388.500000,632.333313 388.500000,651.000000 
"/>
<path fill="none" opacity="1.000000" stroke="#000000" stroke-linecap="round" stroke-linejoin="round" stroke-width="6.000000"
	d="
M441.000000,591.000000 
	C440.198730,592.603210 440.513397,594.325562 440.511688,596.000000 
	C440.493042,614.333313 440.500000,632.666687 440.500000,651.000000 
"/>
<path fill="none" opacity="1.000000" stroke="#000000" stroke-linecap="round" stroke-linejoin="round" stroke-width="7.000000"
	d="
M1246.500000,254.000000 
	C1247.656128,262.983612 1250.816528,271.421417 1253.425781,280.022491 
	C1254.794312,284.533905 1254.245605,289.368347 1253.914795,293.993896 
	C1252.831543,309.148529 1252.033203,324.305481 1252.000000,339.500000 
"/>
<path fill="none" opacity="1.000000" stroke="#000000" stroke-linecap="round" stroke-linejoin="round" stroke-width="7.000000"
	d="
M1243.500000,253.500000 
	C1256.622192,251.407654 1269.833130,252.813217 1283.000854,252.538986 
	C1288.007080,252.434738 1288.804077,253.486313 1287.471191,257.991486 
	C1285.243164,265.522644 1283.052612,273.079742 1280.370483,280.452881 
	C1279.532837,282.755524 1281.100830,284.082611 1281.116943,285.999023 
	C1281.225220,298.834259 1281.852295,311.665863 1281.907715,324.500397 
	C1281.929565,329.556274 1283.716064,334.430054 1283.000000,339.500000 
"/>
<path fill="none" opacity="1.000000" stroke="#000000" stroke-linecap="round" stroke-linejoin="round" stroke-width="6.000000"
	d="
M567.500000,611.000000 
	C571.132263,611.924194 574.832397,611.451233 578.500183,611.477661 
	C587.833008,611.544861 597.166809,611.477966 606.499878,611.522400 
	C608.000671,611.529541 610.011414,611.275818 610.909058,612.099182 
	C614.302002,615.211426 617.309753,613.532043 620.513062,612.027771 
	C621.597229,611.518738 623.174622,610.689209 623.947632,611.098816 
	C632.442993,615.600403 640.952881,610.334656 649.522949,611.295105 
	C657.917542,612.235901 666.500183,611.528625 674.999878,611.477234 
	C676.834106,611.466187 678.666687,611.166687 680.500000,611.000000 
"/>
<path fill="none" opacity="1.000000" stroke="#000000" stroke-linecap="round" stroke-linejoin="round" stroke-width="6.000000"
	d="
M361.500000,597.000000 
	C362.316650,599.435547 362.545715,601.920715 362.534241,604.500122 
	C362.465332,619.999817 362.500000,635.500000 362.500000,651.000000 
"/>
<path fill="none" opacity="1.000000" stroke="#000000" stroke-linecap="round" stroke-linejoin="round" stroke-width="6.000000"
	d="
M467.500000,598.500000 
	C466.103455,600.140015 466.512512,602.120178 466.510315,604.000000 
	C466.492188,619.666687 466.500000,635.333313 466.500000,651.000000 
"/>
<path fill="none" opacity="1.000000" stroke="#000000" stroke-linecap="round" stroke-linejoin="round" stroke-width="6.000000"
	d="
M338.000000,605.000000 
	C336.403870,609.462036 331.629883,609.319153 328.425110,611.383728 
	C314.003113,620.674377 301.289032,631.852051 291.206177,645.650696 
	C288.243835,649.704712 284.310852,652.972656 281.975586,657.487366 
	C281.163544,659.057190 279.623566,659.886963 278.000000,660.500000 
"/>
<path fill="none" opacity="1.000000" stroke="#000000" stroke-linecap="round" stroke-linejoin="round" stroke-width="7.000000"
	d="
M289.500000,650.500000 
	C291.202728,652.189087 293.357849,652.012939 295.500031,652.009216 
	C306.833313,651.989563 318.166656,652.000000 329.500000,652.000000 
	C331.833344,652.000000 334.166656,652.000000 336.500000,652.000000 
"/>
<path fill="none" opacity="1.000000" stroke="#000000" stroke-linecap="round" stroke-linejoin="round" stroke-width="6.000000"
	d="
M623.500000,568.500000 
	C614.000000,568.500000 604.500000,568.509705 595.000000,568.488831 
	C593.666565,568.485901 592.293030,568.511108 591.006836,568.219727 
	C584.888550,566.833496 583.436951,567.559937 581.000732,573.500305 
	C576.831604,583.666016 572.853210,593.916199 568.393860,603.952820 
	C566.930725,607.246033 567.299011,611.076904 564.993469,613.994873 
	C559.972473,620.349609 556.876282,627.758728 553.523804,635.010986 
	C548.006592,646.946045 539.441528,656.752808 531.485474,666.988708 
	C530.195679,668.647949 529.679810,670.596863 529.000000,672.500000 
"/>
<path fill="none" opacity="1.000000" stroke="#000000" stroke-linecap="round" stroke-linejoin="round" stroke-width="7.000000"
	d="
M334.500000,602.500000 
	C338.591492,605.135437 341.923401,603.563904 346.092407,601.707520 
	C358.238495,596.298889 370.721619,591.538452 384.002350,589.515381 
	C393.939178,588.001709 403.799927,586.773193 414.012787,587.173035 
	C421.898773,587.481812 429.733276,587.537598 437.497650,589.012329 
	C444.371887,590.318054 451.480774,590.877441 457.969269,593.573975 
	C470.370941,598.727600 482.628357,603.778015 494.295013,611.025085 
	C509.658203,620.568420 521.965210,632.626648 533.526978,645.976624 
	C534.703186,647.334839 535.834045,648.555237 535.500000,650.500000 
"/>
<path fill="none" opacity="1.000000" stroke="#000000" stroke-linecap="round" stroke-linejoin="round" stroke-width="7.000000"
	d="
M1137.500000,432.500000 
	C1126.180298,433.590149 1114.832642,432.774902 1103.499390,432.965729 
	C1100.169800,433.021790 1096.833374,432.666656 1093.500000,432.500000 
"/>
<path fill="none" opacity="1.000000" stroke="#000000" stroke-linecap="round" stroke-linejoin="round" stroke-width="6.000000"
	d="
M1137.500000,451.500000 
	C1122.833374,451.500000 1108.166626,451.500000 1093.500000,451.500000 
"/>
<path fill="none" opacity="1.000000" stroke="#000000" stroke-linecap="round" stroke-linejoin="round" stroke-width="7.000000"
	d="
M1137.500000,470.500000 
	C1126.180298,471.590149 1114.832642,470.774872 1103.499390,470.965729 
	C1100.169800,471.021790 1096.833374,470.666656 1093.500000,470.499969 
"/>
<path fill="none" opacity="1.000000" stroke="#000000" stroke-linecap="round" stroke-linejoin="round" stroke-width="7.000000"
	d="
M1136.000000,548.000000 
	C1121.500000,548.000000 1107.000000,548.000000 1092.500000,548.000000 
"/>
<path fill="none" opacity="1.000000" stroke="#000000" stroke-linecap="round" stroke-linejoin="round" stroke-width="6.000000"
	d="
M661.500000,567.000000 
	C668.526306,573.070190 669.512756,582.189148 672.881592,590.050720 
	C675.971436,597.261414 678.990601,604.562805 681.907471,611.836609 
	C684.833801,619.134155 689.879272,625.807739 693.428040,633.035339 
	C698.633850,643.637634 706.141968,652.682556 712.491821,662.505310 
	C713.892944,664.672668 715.436829,666.636108 718.000000,667.500000 
"/>
<path fill="none" opacity="1.000000" stroke="#000000" stroke-linecap="round" stroke-linejoin="round" stroke-width="7.000000"
	d="
M540.000000,653.500000 
	C537.750427,651.747864 535.592590,649.803650 532.462158,651.944641 
	C531.894409,652.332947 530.833191,652.010437 530.000000,651.998474 
	C509.001099,651.696899 487.996735,651.849548 466.998718,651.735718 
	C451.515442,651.651672 435.996460,651.951233 420.500244,651.909119 
	C401.334839,651.856995 382.169159,652.146423 362.995056,651.724976 
	C354.208923,651.531921 345.329681,651.638977 336.500000,652.000000 
"/>
<path fill="none" opacity="1.000000" stroke="#000000" stroke-linecap="round" stroke-linejoin="round" stroke-width="7.000000"
	d="
M1136.000000,490.000000 
	C1123.833374,490.000000 1111.666504,489.977478 1099.500122,490.022430 
	C1097.499512,490.029816 1095.500000,490.333344 1093.500000,490.500031 
"/>
<path fill="none" opacity="1.000000" stroke="#000000" stroke-linecap="round" stroke-linejoin="round" stroke-width="7.000000"
	d="
M633.000000,285.500000 
	C633.551880,274.971893 631.428894,264.536835 631.939026,253.997055 
	C632.094421,250.786392 628.191895,248.769302 623.999084,249.494797 
	C622.838318,249.695648 621.662476,249.997421 620.500854,249.967636 
	C617.610718,249.893494 616.893127,251.469620 616.984131,254.000565 
	C617.362244,264.520599 615.312195,274.967590 616.000000,285.500000 
"/>
<path fill="none" opacity="1.000000" stroke="#000000" stroke-linecap="round" stroke-linejoin="round" stroke-width="6.000000"
	d="
M1093.500000,528.500000 
	C1108.166626,528.500000 1122.833374,528.500000 1137.500000,528.500000 
"/>
<path fill="none" opacity="1.000000" stroke="#000000" stroke-linecap="round" stroke-linejoin="round" stroke-width="6.000000"
	d="
M586.000000,568.000000 
	C587.174988,575.244019 593.562744,578.792664 597.640076,583.887878 
	C604.633118,592.626892 612.500000,600.666687 620.000000,609.000000 
"/>
<path fill="none" opacity="1.000000" stroke="#000000" stroke-linecap="round" stroke-linejoin="round" stroke-width="7.000000"
	d="
M624.500000,531.500000 
	C623.433838,557.827637 624.260010,584.167236 624.000000,610.500000 
"/>
<path fill="none" opacity="1.000000" stroke="#000000" stroke-linecap="round" stroke-linejoin="round" stroke-width="6.000000"
	d="
M662.500000,569.500000 
	C657.694885,577.211060 650.763550,583.106018 644.961121,589.967102 
	C639.475525,596.453613 633.666687,602.666687 628.000000,609.000000 
"/>
<path fill="none" opacity="1.000000" stroke="#000000" stroke-linecap="round" stroke-linejoin="round" stroke-width="7.000000"
	d="
M1278.000000,251.500000 
	C1278.000000,243.500000 1277.874878,235.497131 1278.058594,227.501343 
	C1278.137573,224.064758 1276.852173,223.228241 1273.518555,222.840317 
	C1268.944336,222.308014 1264.495850,223.173569 1260.001465,222.968033 
	C1257.022217,222.831772 1255.913696,224.025146 1255.958008,227.000626 
	C1256.079590,235.165482 1256.000000,243.333328 1256.000000,251.500000 
"/>
<path fill="none" opacity="1.000000" stroke="#000000" stroke-linecap="round" stroke-linejoin="round" stroke-width="7.000000"
	d="
M646.500000,471.000000 
	C649.385986,472.359283 652.467529,471.993652 655.500000,471.989960 
	C658.344788,471.986481 659.430786,472.795776 658.599182,476.025543 
	C657.380371,480.759613 656.872375,485.673828 655.986938,490.497620 
	C655.339783,494.023254 651.192566,496.935669 648.008545,495.971802 
	C641.235535,493.921509 634.331482,495.336212 627.497620,495.058685 
	C620.841919,494.788452 614.166687,495.000000 607.500000,495.000000 
	C606.000000,495.000000 604.496704,494.934601 603.000549,495.010651 
	C592.915588,495.523163 592.814819,495.379425 591.963013,485.003021 
	C591.701416,481.816803 590.963989,478.671753 590.515686,475.497772 
	C590.302002,473.984650 590.703979,472.708954 592.500977,472.508575 
	C596.160217,472.100525 600.020752,470.394745 603.423828,471.698761 
	C606.502686,472.878571 609.316711,471.534851 612.002197,471.547791 
	C620.643677,471.589478 629.367920,472.280304 637.982910,471.342773 
	C640.518616,471.066864 643.087830,472.483704 645.500000,471.000000 
"/>
<path fill="none" opacity="1.000000" stroke="#000000" stroke-linecap="round" stroke-linejoin="round" stroke-width="6.000000"
	d="
M493.500000,612.000000 
	C492.503143,613.889404 492.471527,615.919006 492.479706,618.000061 
	C492.522919,628.999939 492.500000,640.000000 492.500000,651.000000 
"/>
<path fill="none" opacity="1.000000" stroke="#000000" stroke-linecap="round" stroke-linejoin="round" stroke-width="7.000000"
	d="
M1093.500000,509.500000 
	C1106.656006,510.511963 1119.833862,509.795135 1133.000366,509.974670 
	C1134.497803,509.995087 1136.000000,509.666656 1137.500000,509.500000 
"/>
<path fill="none" opacity="1.000000" stroke="#000000" stroke-linecap="round" stroke-linejoin="round" stroke-width="7.000000"
	d="
M1286.000000,377.999969 
	C1285.333374,377.666656 1284.659790,377.030060 1284.000977,377.045044 
	C1272.335205,377.309814 1260.652466,376.342621 1249.000000,377.500000 
"/>
<path fill="none" opacity="1.000000" stroke="#000000" stroke-linecap="round" stroke-linejoin="round" stroke-width="7.000000"
	d="
M335.500000,609.000000 
	C336.763763,610.990417 337.058105,613.146790 337.040741,615.500305 
	C336.952393,627.499634 337.000000,639.500000 337.000000,651.500000 
"/>
<path fill="none" opacity="1.000000" stroke="#000000" stroke-linecap="round" stroke-linejoin="round" stroke-width="6.000000"
	d="
M649.000000,497.000000 
	C647.861816,501.147217 651.106445,504.380371 651.247498,508.491516 
	C651.476013,515.150391 653.227356,521.725525 653.837402,528.469482 
	C654.347778,534.111633 656.895386,539.716675 658.065979,545.486633 
	C658.891541,549.555847 660.478699,553.464417 661.469116,557.507568 
	C663.406067,565.414734 661.852844,567.720764 653.487915,568.335876 
	C643.873230,569.042969 634.166687,568.500000 624.500000,568.500000 
"/>
<path fill="none" opacity="1.000000" stroke="#000000" stroke-linecap="round" stroke-linejoin="round" stroke-width="5.000000"
	d="
M607.000000,436.500000 
	C609.212341,437.071136 610.945251,438.329193 612.518005,439.982880 
	C620.478821,448.353485 628.477173,456.688782 636.519958,464.980652 
	C638.066345,466.574890 639.198669,468.285553 639.500000,470.500000 
"/>
<path fill="none" opacity="1.000000" stroke="#000000" stroke-linecap="round" stroke-linejoin="round" stroke-width="7.000000"
	d="
M599.000000,502.500000 
	C595.838135,504.983978 596.513062,508.965424 596.220276,512.021118 
	C594.794678,526.900940 590.660645,541.156616 586.800964,555.446228 
	C585.697083,559.533264 586.752686,563.170410 586.500000,567.000000 
"/>
<path fill="none" opacity="1.000000" stroke="#000000" stroke-linecap="round" stroke-linejoin="round" stroke-width="6.000000"
	d="
M620.000000,533.000000 
	C610.500000,542.666626 600.991028,552.324585 591.510620,562.010376 
	C590.235962,563.312683 588.579163,563.809143 587.000000,564.500000 
"/>
<path fill="none" opacity="1.000000" stroke="#000000" stroke-linecap="round" stroke-linejoin="round" stroke-width="7.000000"
	d="
M625.000000,335.000000 
	C622.191528,336.048462 621.387634,338.805603 620.046814,341.028229 
	C618.716675,343.232971 617.785767,345.609650 615.011780,346.535370 
	C612.969666,347.216858 612.508179,349.285858 612.569092,350.997528 
	C612.891968,360.056671 609.580811,368.990845 611.165222,377.970856 
	C612.046631,382.966583 611.579346,388.237244 610.533203,392.382172 
	C608.299011,401.234283 609.426758,410.317688 607.075684,419.020447 
	C606.418640,421.452362 607.036255,424.084045 608.000000,426.500000 
"/>
<path fill="none" opacity="1.000000" stroke="#000000" stroke-linecap="round" stroke-linejoin="round" stroke-width="7.000000"
	d="
M624.000000,408.500000 
	C620.913147,411.393219 619.031616,415.196716 616.452637,418.462616 
	C614.120178,421.416351 612.865112,425.279449 608.550842,426.659058 
	C606.445435,427.332306 606.283875,430.301819 606.017090,432.502075 
	C604.481873,445.164459 603.000000,457.833344 601.500000,470.500000 
"/>
<path fill="none" opacity="1.000000" stroke="#000000" stroke-linecap="round" stroke-linejoin="round" stroke-width="6.000000"
	d="
M627.000000,534.000000 
	C637.333313,544.166687 647.664978,554.335083 658.010071,564.489746 
	C658.263184,564.738159 658.666687,564.833313 659.000000,565.000000 
"/>
<path fill="none" opacity="1.000000" stroke="#000000" stroke-linecap="round" stroke-linejoin="round" stroke-width="7.000000"
	d="
M637.500000,392.500000 
	C640.266235,395.158020 639.617798,399.138000 639.663147,402.005310 
	C639.776428,409.180847 642.394226,416.319763 640.365295,423.461731 
	C640.096741,424.406891 640.418213,424.889221 640.540344,425.491821 
	C643.551392,440.352020 645.731689,455.308716 646.000000,470.500000 
"/>
<path fill="none" opacity="1.000000" stroke="#000000" stroke-linecap="round" stroke-linejoin="round" stroke-width="6.000000"
	d="
M633.500000,615.000000 
	C637.075439,619.164185 642.710327,619.494934 647.156799,622.246643 
	C654.289917,626.661133 660.151733,632.240479 665.997925,638.002075 
	C673.415405,645.312317 678.244690,654.492798 683.961548,663.025757 
	C685.113586,664.745178 685.966187,666.622620 688.000000,667.500000 
"/>
<path fill="none" opacity="1.000000" stroke="#000000" stroke-linecap="round" stroke-linejoin="round" stroke-width="6.000000"
	d="
M613.000000,615.000000 
	C611.409058,617.268860 608.793518,617.967773 606.478271,618.948730 
	C594.661499,623.956116 585.730225,633.073730 577.944519,642.372192 
	C572.489929,648.886536 567.888611,656.825867 563.473267,664.484558 
	C562.832703,665.595703 561.833313,666.499939 560.999939,667.499939 
"/>
<path fill="none" opacity="1.000000" stroke="#000000" stroke-linecap="round" stroke-linejoin="round" stroke-width="7.000000"
	d="
M615.500000,285.999969 
	C613.833313,286.166656 612.170105,286.409973 610.499329,286.484772 
	C606.388855,286.668915 605.578003,287.749664 606.500305,291.999939 
	C607.332153,295.833588 608.082031,299.687592 609.023132,303.494263 
	C610.021606,307.532593 612.084167,308.337402 616.505066,308.090210 
	C622.836121,307.736176 629.201782,308.000000 637.407410,308.000000 
	C641.312561,306.026062 640.223145,299.841339 641.956238,294.984406 
	C642.358093,293.858368 642.299988,292.677032 642.839417,291.430511 
	C644.015625,288.712524 642.148682,286.564087 638.999695,286.522827 
	C633.000732,286.444153 626.999695,286.532532 621.000183,286.477173 
	C619.498779,286.463287 618.000000,286.166687 616.500000,286.000000 
"/>
<path fill="none" opacity="1.000000" stroke="#000000" stroke-linecap="round" stroke-linejoin="round" stroke-width="7.000000"
	d="
M624.000000,496.500000 
	C624.000000,507.833344 624.000000,519.166687 624.000000,530.500000 
"/>
<path fill="none" opacity="1.000000" stroke="#000000" stroke-linecap="round" stroke-linejoin="round" stroke-width="7.000000"
	d="
M595.000000,529.500000 
	C596.000000,529.666687 597.002014,529.988770 597.999695,529.975708 
	C606.852112,529.860229 615.732483,531.036804 624.488525,530.700806 
	C632.987671,530.374573 641.497009,530.260132 649.999390,529.981873 
	C651.003784,529.948975 652.000000,529.666626 653.000000,529.500000 
"/>
<path fill="none" opacity="1.000000" stroke="#000000" stroke-linecap="round" stroke-linejoin="round" stroke-width="6.000000"
	d="
M648.500000,501.000000 
	C641.886597,505.033264 638.679810,512.157593 633.556885,517.554016 
	C630.695251,520.568420 628.758545,524.499207 624.500000,526.000000 
"/>
<path fill="none" opacity="1.000000" stroke="#000000" stroke-linecap="round" stroke-linejoin="round" stroke-width="6.000000"
	d="
M598.500000,496.500000 
	C597.760071,499.786621 599.791626,501.453674 601.903625,503.595062 
	C606.871155,508.631683 611.699280,513.900696 615.848877,519.609863 
	C617.990845,522.556824 620.528687,524.377136 623.500000,526.000000 
"/>
<path fill="none" opacity="1.000000" stroke="#000000" stroke-linecap="round" stroke-linejoin="round" stroke-width="7.000000"
	d="
M635.500000,309.500000 
	C636.428833,310.180908 636.076660,311.202118 635.963013,311.994690 
	C634.411133,322.813751 636.132080,333.663849 635.874084,344.508911 
	C635.666870,353.221954 635.928467,362.260468 637.899109,371.022675 
	C638.541382,373.878235 638.287048,377.035828 637.918274,379.989807 
	C637.558716,382.870087 637.174011,385.630798 637.930847,388.518127 
	C638.222534,389.631012 638.419678,391.061584 637.012085,392.017792 
	C631.286194,395.907654 628.305237,402.041870 624.500000,407.500000 
"/>
<path fill="none" opacity="1.000000" stroke="#000000" stroke-linecap="round" stroke-linejoin="round" stroke-width="7.000000"
	d="
M614.500000,320.500000 
	C613.006775,322.062469 613.022339,323.998199 612.969788,325.999207 
	C612.833740,331.175171 613.607483,336.398956 612.033691,341.510376 
	C611.411804,343.530212 612.786194,345.224976 613.500000,347.000000 
"/>
<path fill="none" opacity="1.000000" stroke="#000000" stroke-linecap="round" stroke-linejoin="round" stroke-width="6.000000"
	d="
M697.000000,641.500000 
	C690.761353,643.997375 684.665588,641.105774 678.499573,641.065063 
	C676.016357,641.048767 673.403870,639.891113 671.000000,641.500000 
"/>
<path fill="none" opacity="1.000000" stroke="#000000" stroke-linecap="round" stroke-linejoin="round" stroke-width="6.000000"
	d="
M577.000000,641.500000 
	C571.617004,640.077209 566.321350,641.660217 561.004272,642.057068 
	C557.814392,642.295166 554.666687,642.872620 551.500000,642.000000 
"/>
<path fill="none" opacity="1.000000" stroke="#000000" stroke-linecap="round" stroke-linejoin="round" stroke-width="7.000000"
	d="
M1279.500000,281.500000 
	C1271.333374,280.684631 1263.166626,280.681641 1255.000000,281.500000 
"/>
<path fill="none" opacity="1.000000" stroke="#000000" stroke-linecap="round" stroke-linejoin="round" stroke-width="6.000000"
	d="
M1208.500000,601.500000 
	C1216.497925,601.764282 1224.518921,600.927246 1232.500000,602.000000 
"/>
<path fill="none" opacity="1.000000" stroke="#000000" stroke-linecap="round" stroke-linejoin="round" stroke-width="5.000000"
	d="
M682.500000,615.000000 
	C677.453857,619.070190 674.967102,625.101990 671.005432,630.004395 
	C669.140503,632.312195 667.333374,634.666687 665.500000,637.000000 
"/>
<path fill="none" opacity="1.000000" stroke="#000000" stroke-linecap="round" stroke-linejoin="round" stroke-width="5.000000"
	d="
M550.000000,646.500000 
	C552.848877,648.619202 552.990417,652.185120 554.407166,655.045959 
	C556.456238,659.183533 557.057312,663.996948 560.472046,667.527039 
	C561.928040,669.032104 560.549316,670.833313 560.500000,672.500000 
"/>
<path fill="none" opacity="1.000000" stroke="#000000" stroke-linecap="round" stroke-linejoin="round" stroke-width="5.000000"
	d="
M699.000000,646.500000 
	C696.496521,648.782654 696.379089,652.198181 694.947998,654.973206 
	C692.795715,659.146484 692.047852,664.013367 688.541504,667.541260 
	C687.226624,668.864136 688.270142,670.843689 688.000000,672.500000 
"/>
<path fill="none" opacity="1.000000" stroke="#000000" stroke-linecap="round" stroke-linejoin="round" stroke-width="5.000000"
	d="
M566.000000,616.000000 
	C571.166626,623.000000 576.333313,630.000000 581.500000,637.000000 
"/>
<path fill="none" opacity="1.000000" stroke="#000000" stroke-linecap="round" stroke-linejoin="round" stroke-width="8.000000"
	d="
M336.000000,653.000000 
	C336.166656,659.500000 336.333344,666.000000 336.500000,672.500000 
"/>
<path fill="none" opacity="1.000000" stroke="#000000" stroke-linecap="round" stroke-linejoin="round" stroke-width="5.000000"
	d="
M625.000000,408.500000 
	C628.486511,411.661957 630.668823,415.831696 633.498047,419.501526 
	C635.128418,421.616394 636.490906,424.044250 639.500000,424.500000 
"/>
<path fill="none" opacity="1.000000" stroke="#000000" stroke-linecap="round" stroke-linejoin="round" stroke-width="5.000000"
	d="
M624.000000,453.500000 
	C620.333313,457.166656 616.707642,460.875610 612.982056,464.481445 
	C611.223633,466.183350 609.811829,468.001343 609.500000,470.500000 
"/>
<path fill="none" opacity="1.000000" stroke="#000000" stroke-linecap="round" stroke-linejoin="round" stroke-width="5.000000"
	d="
M641.500000,437.500000 
	C635.632080,439.598572 632.494385,444.782440 628.495972,448.996185 
	C627.522827,450.021667 626.500000,451.000000 625.500000,452.000000 
"/>
<path fill="none" opacity="1.000000" stroke="#000000" stroke-linecap="round" stroke-linejoin="round" stroke-width="5.000000"
	d="
M624.000000,405.500000 
	C621.413391,402.987793 619.468933,400.001190 617.406799,397.065460 
	C616.007080,395.072815 614.594727,392.540344 611.500000,392.500000 
"/>
<path fill="none" opacity="1.000000" stroke="#000000" stroke-linecap="round" stroke-linejoin="round" stroke-width="5.000000"
	d="
M625.000000,371.500000 
	C628.600830,373.514191 629.604065,377.572449 631.825562,380.626892 
	C633.184082,382.494843 634.335571,383.914154 636.500000,384.500000 
"/>
<path fill="none" opacity="1.000000" stroke="#000000" stroke-linecap="round" stroke-linejoin="round" stroke-width="5.000000"
	d="
M613.500000,355.500000 
	C615.765625,355.682312 616.895630,357.281281 618.015808,358.989624 
	C619.789856,361.695190 621.463440,364.510925 623.578552,366.931335 
	C624.788696,368.316132 624.950439,370.405701 624.394531,370.875031 
	C620.720825,373.976410 619.080505,378.533295 615.960754,381.964325 
	C615.001953,383.018860 613.603943,383.721680 612.000000,383.500000 
"/>
<path fill="none" opacity="1.000000" stroke="#000000" stroke-linecap="round" stroke-linejoin="round" stroke-width="5.000000"
	d="
M635.000000,356.500000 
	C632.020569,357.187225 631.093872,359.918701 629.488953,361.991425 
	C628.039246,363.863586 627.293152,366.315613 625.000000,367.500000 
"/>
<path fill="none" opacity="1.000000" stroke="#000000" stroke-linecap="round" stroke-linejoin="round" stroke-width="5.000000"
	d="
M625.000000,331.000000 
	C620.005432,324.512726 611.507080,319.818054 614.000000,309.500000 
"/>
<path fill="none" opacity="1.000000" stroke="#000000" stroke-linecap="round" stroke-linejoin="round" stroke-width="5.000000"
	d="
M634.000000,320.500000 
	C629.016296,322.780884 628.057068,328.211151 625.043701,332.034454 
	C624.719604,332.445679 624.711243,333.626862 625.044495,333.954773 
	C628.515442,337.369720 629.195557,343.179565 634.500000,345.000000 
"/>
</svg>