<?xml version="1.0" encoding="UTF-8" standalone="no"?>
<!-- Created with Inkscape (http://www.inkscape.org/) -->

<svg
   version="1.1"
   id="svg2"
   xml:space="preserve"
   width="600"
   height="400"
   viewBox="0 0 599.99999 400"
   sodipodi:docname="overview.svg"
   inkscape:version="1.1 (c4e8f9ed74, 2021-05-24)"
   xmlns:inkscape="http://www.inkscape.org/namespaces/inkscape"
   xmlns:sodipodi="http://sodipodi.sourceforge.net/DTD/sodipodi-0.dtd"
   xmlns="http://www.w3.org/2000/svg"
   xmlns:svg="http://www.w3.org/2000/svg"><sodipodi:namedview
     id="namedview318"
     pagecolor="#505050"
     bordercolor="#ffffff"
     borderopacity="1"
     inkscape:pageshadow="0"
     inkscape:pageopacity="0"
     inkscape:pagecheckerboard="1"
     showgrid="false"
     width="600px"
     inkscape:zoom="1.7704601"
     inkscape:cx="277.04662"
     inkscape:cy="177.91985"
     inkscape:window-width="2556"
     inkscape:window-height="1401"
     inkscape:window-x="0"
     inkscape:window-y="37"
     inkscape:window-maximized="1"
     inkscape:current-layer="svg2" /><defs
     id="defs6"><clipPath
       clipPathUnits="userSpaceOnUse"
       id="clipPath20"><path
         d="M 0,0 V 2140 H 3104 V 0 Z m 1433.87,308.366 h 37.79 v 95.115 l -18.89,-75.588 -18.9,75.588 z"
         clip-rule="evenodd"
         id="path18" /></clipPath><clipPath
       clipPathUnits="userSpaceOnUse"
       id="clipPath36"><path
         d="M 0,0 V 2140 H 3104 V 0 Z m 2230.06,952.754 -5.67,37.164 -94.48,-13.228 78.11,-8.189 -72.44,-29.605 z"
         clip-rule="evenodd"
         id="path34" /></clipPath><clipPath
       clipPathUnits="userSpaceOnUse"
       id="clipPath54"><path
         d="M 0,0 V 2140 H 3104 V 0 Z m 2231.95,897.953 -10.71,36.534 -91.33,-27.716 78.11,3.15 -67.4,-39.054 z"
         clip-rule="evenodd"
         id="path52" /></clipPath><clipPath
       clipPathUnits="userSpaceOnUse"
       id="clipPath72"><path
         d="M 0,0 V 2140 H 3104 V 0 Z m 1629.77,1568.8 30.86,-22.05 55.43,77.48 -59.21,-51.02 28.35,73.06 z"
         clip-rule="evenodd"
         id="path70" /></clipPath><clipPath
       clipPathUnits="userSpaceOnUse"
       id="clipPath90"><path
         d="M 0,0 V 2140 H 3104 V 0 Z m 1244.27,1546.75 30.87,22.05 -55.44,77.47 28.98,-73.06 -59.84,51.02 z"
         clip-rule="evenodd"
         id="path88" /></clipPath><clipPath
       clipPathUnits="userSpaceOnUse"
       id="clipPath106"><path
         d="M 0,0 V 2140 H 3104 V 0 Z m 451.226,894.173 h -37.794 v -95.115 l 18.897,75.588 18.897,-75.588 z"
         clip-rule="evenodd"
         id="path104" /></clipPath><clipPath
       clipPathUnits="userSpaceOnUse"
       id="clipPath122"><path
         d="M 0,0 V 2140 H 3104 V 0 Z m 2227.54,1007.56 v 37.79 h -95.11 l 75.59,-18.9 -75.59,-18.89 z"
         clip-rule="evenodd"
         id="path120" /></clipPath><clipPath
       clipPathUnits="userSpaceOnUse"
       id="clipPath138"><path
         d="M 0,0 V 2140 H 3104 V 0 Z m 415.951,1068.66 15.118,-34.65 86.926,39.05 -76.218,-13.85 61.1,48.5 z m 797.449,313.06 -15.11,34.64 -86.93,-39.05 76.85,13.22 -61.73,-47.87 z"
         clip-rule="evenodd"
         id="path136" /></clipPath><clipPath
       clipPathUnits="userSpaceOnUse"
       id="clipPath158"><path
         d="M 0,0 V 2140 H 3104 V 0 Z m 2502.81,1034.01 14.49,35.28 -88.82,35.27 63.62,-45.98 -77.48,10.71 z m -853.51,382.35 -14.49,-35.27 88.81,-35.28 -62.99,45.35 76.85,-10.07 z"
         clip-rule="evenodd"
         id="path156" /></clipPath></defs><g
     id="g8"
     transform="matrix(0.15609988,0,0,-0.15609988,65.700212,372.42151)"><g
       id="g10"><path
         d="M 1452.77,1394.94 V 686.306"
         style="fill:none;stroke:#000000;stroke-width:4.72425;stroke-linecap:butt;stroke-linejoin:round;stroke-miterlimit:10;stroke-dasharray:none;stroke-opacity:1"
         id="path12" /></g><g
       id="g14"><g
         id="g16"
         clip-path="url(#clipPath20)"><path
           d="M 1452.77,686.306 V 317.815"
           style="fill:none;stroke:#000000;stroke-width:4.72425;stroke-linecap:butt;stroke-linejoin:round;stroke-miterlimit:10;stroke-dasharray:37.794;stroke-dashoffset:0;stroke-opacity:1"
           id="path22" /></g></g><g
       id="g24"><path
         d="m 1433.87,403.481 18.9,-75.588 18.89,75.588 h -37.79"
         style="fill:#000000;fill-opacity:1;fill-rule:evenodd;stroke:none"
         id="path26" /><path
         d="m 1433.87,403.481 18.9,-75.588 18.89,75.588 z"
         style="fill:none;stroke:#000000;stroke-width:4.72425;stroke-linecap:butt;stroke-linejoin:miter;stroke-miterlimit:10;stroke-dasharray:none;stroke-opacity:1"
         id="path28" /></g><g
       id="g30"><g
         id="g32"
         clip-path="url(#clipPath36)"><path
           d="M 1452.77,856.379 2218.1,969.761"
           style="fill:none;stroke:#000000;stroke-width:4.72425;stroke-linecap:butt;stroke-linejoin:round;stroke-miterlimit:10;stroke-dasharray:none;stroke-opacity:1"
           id="path38" /></g></g><g
       id="g40"><path
         d="m 2135.58,938.896 72.44,29.605 -78.11,8.189 5.67,-37.794"
         style="fill:#000000;fill-opacity:1;fill-rule:evenodd;stroke:none"
         id="path42" /><path
         d="m 2135.58,938.896 72.44,29.605 -78.11,8.189 z"
         style="fill:none;stroke:#000000;stroke-width:4.72425;stroke-linecap:butt;stroke-linejoin:miter;stroke-miterlimit:10;stroke-dasharray:none;stroke-opacity:1"
         id="path44" /><path
         d="m 2558.24,1309.91 85.04,-113.38"
         style="fill:none;stroke:#000000;stroke-width:4.72425;stroke-linecap:butt;stroke-linejoin:round;stroke-miterlimit:10;stroke-dasharray:none;stroke-opacity:1"
         id="path46" /></g><g
       id="g48"><g
         id="g50"
         clip-path="url(#clipPath54)"><path
           d="M 1452.77,686.306 2218.1,913.07"
           style="fill:none;stroke:#000000;stroke-width:4.72425;stroke-linecap:butt;stroke-linejoin:round;stroke-miterlimit:10;stroke-dasharray:none;stroke-opacity:1"
           id="path56" /></g></g><g
       id="g58"><path
         d="m 2140.62,870.867 67.4,39.054 -78.11,-3.15 10.71,-35.904"
         style="fill:#000000;fill-opacity:1;fill-rule:evenodd;stroke:none"
         id="path60" /><path
         d="m 2140.62,870.867 67.4,39.054 -78.11,-3.15 z"
         style="fill:none;stroke:#000000;stroke-width:4.72425;stroke-linecap:butt;stroke-linejoin:miter;stroke-miterlimit:10;stroke-dasharray:none;stroke-opacity:1"
         id="path62" /><path
         d="m 2558.24,1309.91 85.04,113.38"
         style="fill:none;stroke:#000000;stroke-width:4.72425;stroke-linecap:butt;stroke-linejoin:round;stroke-miterlimit:10;stroke-dasharray:none;stroke-opacity:1"
         id="path64" /></g><g
       id="g66"><g
         id="g68"
         clip-path="url(#clipPath72)"><path
           d="M 1934.64,1961.85 1651.19,1565.02"
           style="fill:none;stroke:#000000;stroke-width:4.72425;stroke-linecap:butt;stroke-linejoin:round;stroke-miterlimit:10;stroke-dasharray:none;stroke-opacity:1"
           id="path74" /></g></g><g
       id="g76"><path
         d="m 1685.2,1646.27 -28.35,-73.06 59.21,51.02 -30.86,22.04"
         style="fill:#000000;fill-opacity:1;fill-rule:evenodd;stroke:none"
         id="path78" /><path
         d="m 1685.2,1646.27 -28.35,-73.06 59.21,51.02 z"
         style="fill:none;stroke:#000000;stroke-width:4.72425;stroke-linecap:butt;stroke-linejoin:miter;stroke-miterlimit:10;stroke-dasharray:none;stroke-opacity:1"
         id="path80" /><path
         d="M 432.329,657.961 H 7.14624 V 1479.98 H 1084.28"
         style="fill:none;stroke:#000000;stroke-width:4.72425;stroke-linecap:butt;stroke-linejoin:round;stroke-miterlimit:10;stroke-dasharray:none;stroke-opacity:1"
         id="path82" /></g><g
       id="g84"><g
         id="g86"
         clip-path="url(#clipPath90)"><path
           d="M 970.893,1961.85 1254.35,1565.02"
           style="fill:none;stroke:#000000;stroke-width:4.72425;stroke-linecap:butt;stroke-linejoin:round;stroke-miterlimit:10;stroke-dasharray:none;stroke-opacity:1"
           id="path92" /></g></g><g
       id="g94"><path
         d="m 1188.84,1624.23 59.84,-51.02 -28.98,73.06 -30.86,-22.04"
         style="fill:#000000;fill-opacity:1;fill-rule:evenodd;stroke:none"
         id="path96" /><path
         d="m 1188.84,1624.23 59.84,-51.02 -28.98,73.06 z"
         style="fill:none;stroke:#000000;stroke-width:4.72425;stroke-linecap:butt;stroke-linejoin:miter;stroke-miterlimit:10;stroke-dasharray:none;stroke-opacity:1"
         id="path98" /></g><g
       id="g100"><g
         id="g102"
         clip-path="url(#clipPath106)"><path
           d="M 1282.69,232.778 H 432.329 v 651.947"
           style="fill:none;stroke:#000000;stroke-width:4.72425;stroke-linecap:butt;stroke-linejoin:round;stroke-miterlimit:10;stroke-dasharray:none;stroke-opacity:1"
           id="path108" /></g></g><g
       id="g110"><path
         d="m 451.226,799.058 -18.897,75.588 -18.897,-75.588 h 37.794"
         style="fill:#000000;fill-opacity:1;fill-rule:evenodd;stroke:none"
         id="path112" /><path
         d="m 451.226,799.058 -18.897,75.588 -18.897,-75.588 z"
         style="fill:none;stroke:#000000;stroke-width:4.72425;stroke-linecap:butt;stroke-linejoin:miter;stroke-miterlimit:10;stroke-dasharray:none;stroke-opacity:1"
         id="path114" /></g><g
       id="g116"><g
         id="g118"
         clip-path="url(#clipPath122)"><path
           d="M 1452.77,1026.45 H 2218.1"
           style="fill:none;stroke:#000000;stroke-width:4.72425;stroke-linecap:butt;stroke-linejoin:round;stroke-miterlimit:10;stroke-dasharray:none;stroke-opacity:1"
           id="path124" /></g></g><g
       id="g126"><path
         d="m 2132.43,1007.56 75.59,18.89 -75.59,18.9 v -37.79"
         style="fill:#000000;fill-opacity:1;fill-rule:evenodd;stroke:none"
         id="path128" /><path
         d="m 2132.43,1007.56 75.59,18.89 -75.59,18.9 z"
         style="fill:none;stroke:#000000;stroke-width:4.72425;stroke-linecap:butt;stroke-linejoin:miter;stroke-miterlimit:10;stroke-dasharray:none;stroke-opacity:1"
         id="path130" /></g><g
       id="g132"><g
         id="g134"
         clip-path="url(#clipPath138)"><path
           d="M 1197.66,1394.94 432.329,1054.8"
           style="fill:none;stroke:#000000;stroke-width:4.72425;stroke-linecap:butt;stroke-linejoin:round;stroke-miterlimit:10;stroke-dasharray:none;stroke-opacity:1"
           id="path140" /></g></g><g
       id="g142"><path
         d="m 1126.48,1342.66 61.73,47.87 -76.85,-13.22 15.12,-34.65"
         style="fill:#000000;fill-opacity:1;fill-rule:evenodd;stroke:none"
         id="path144" /><path
         d="m 1126.48,1342.66 61.73,47.87 -76.85,-13.22 z"
         style="fill:none;stroke:#000000;stroke-width:4.72425;stroke-linecap:butt;stroke-linejoin:miter;stroke-miterlimit:10;stroke-dasharray:none;stroke-opacity:1"
         id="path146" /><path
         d="m 502.877,1107.71 -61.1,-48.5 76.218,13.85 -15.118,34.65"
         style="fill:#000000;fill-opacity:1;fill-rule:evenodd;stroke:none"
         id="path148" /><path
         d="m 502.877,1107.71 -61.1,-48.5 76.218,13.85 z"
         style="fill:none;stroke:#000000;stroke-width:4.72425;stroke-linecap:butt;stroke-linejoin:miter;stroke-miterlimit:10;stroke-dasharray:none;stroke-opacity:1"
         id="path150" /></g><g
       id="g152"><g
         id="g154"
         clip-path="url(#clipPath158)"><path
           d="M 1651.19,1394.94 2501.55,1054.8"
           style="fill:none;stroke:#000000;stroke-width:4.72425;stroke-linecap:butt;stroke-linejoin:round;stroke-miterlimit:10;stroke-dasharray:none;stroke-opacity:1"
           id="path160" /></g></g><g
       id="g162"><path
         d="m 1737.48,1381.09 -76.85,10.07 62.99,-45.35 13.86,35.28"
         style="fill:#000000;fill-opacity:1;fill-rule:evenodd;stroke:none"
         id="path164" /><path
         d="m 1737.48,1381.09 -76.85,10.07 62.99,-45.35 z"
         style="fill:none;stroke:#000000;stroke-width:4.72425;stroke-linecap:butt;stroke-linejoin:miter;stroke-miterlimit:10;stroke-dasharray:none;stroke-opacity:1"
         id="path166" /><path
         d="m 2414.62,1069.29 77.48,-10.71 -63.62,45.98 -13.86,-35.27"
         style="fill:#000000;fill-opacity:1;fill-rule:evenodd;stroke:none"
         id="path168" /><path
         d="m 2414.62,1069.29 77.48,-10.71 -63.62,45.98 z"
         style="fill:none;stroke:#000000;stroke-width:4.72425;stroke-linecap:butt;stroke-linejoin:miter;stroke-miterlimit:10;stroke-dasharray:none;stroke-opacity:1"
         id="path170" /><g
         id="g172"
         transform="scale(10)"><text
           transform="matrix(1,0,0,-1,9.21826,54.4579)"
           style="font-variant:normal;font-weight:normal;font-size:7.5588px;font-family:Helvetica;-inkscape-font-specification:Helvetica;writing-mode:lr-tb;fill:#000000;fill-opacity:1;fill-rule:nonzero;stroke:none"
           id="text180"><tspan
             x="0 4.6184268 9.6601467 14.701866"
             y="0"
             id="tspan174">TEST</tspan><tspan
             x="0 5.4574537 10.499173 15.540893 20.582613"
             y="9.4485102"
             id="tspan176">CASES</tspan><tspan
             x="189.91499 194.11769 198.32039 204.61687 208.81956 210.49762 214.7003"
             y="-124.72049"
             id="tspan178">domains</tspan></text></g><path
         d="m 177.219,884.725 h 510.219 v 170.073 H 177.219 Z"
         style="fill:#ffffff;fill-opacity:1;fill-rule:evenodd;stroke:none"
         id="path182" /><path
         d="m 177.219,884.725 h 510.219 v 170.073 H 177.219 Z"
         style="fill:none;stroke:#000000;stroke-width:4.72425;stroke-linecap:butt;stroke-linejoin:round;stroke-miterlimit:10;stroke-dasharray:none;stroke-opacity:1"
         id="path184" /><path
         d="m 1282.69,147.742 h 340.146 V 317.815 H 1282.69 Z"
         style="fill:#ffffff;fill-opacity:1;fill-rule:evenodd;stroke:none"
         id="path186" /><path
         d="m 1282.69,147.742 h 340.146 V 317.815 H 1282.69 Z"
         style="fill:none;stroke:#000000;stroke-width:4.72425;stroke-linecap:butt;stroke-linejoin:round;stroke-miterlimit:10;stroke-dasharray:none;stroke-opacity:1"
         id="path188" /><g
         id="g190"
         transform="scale(10)"><text
           transform="matrix(1,0,0,-1,31.8947,169.73)"
           style="font-variant:normal;font-weight:normal;font-size:7.5588px;font-family:Helvetica;-inkscape-font-specification:Helvetica;writing-mode:lr-tb;fill:#000000;fill-opacity:1;fill-rule:nonzero;stroke:none"
           id="text204"><tspan
             x="0 2.1013465 4.6184268 8.8211193 13.023812 16.803213 18.481266 20.582613 22.260666 26.463358 30.666052 32.767399 36.546799 40.326199 44.105598 46.206944 50.409637"
             y="0"
             id="tspan192">transition system</tspan><tspan
             x="70.863701 74.643097 76.744446 80.947136 85.149834 90.607285 92.285339 96.064735"
             y="84.091698"
             id="tspan194">stepwise</tspan><tspan
             x="70.863701 73.380783 77.583473 79.684822 81.362877 85.565567 89.768257 96.064735 100.26743 104.47012"
             y="93.540207"
             id="tspan196">refinement</tspan><tspan
             x="70.863701 73.380783 77.583473 79.684822 81.362877 85.565567 89.344963 91.446312 93.124367 97.327057"
             y="102.98872"
             id="tspan198">reflecting</tspan><tspan
             x="70.863701 75.066391 79.269089 83.048485 84.72654 88.92923"
             y="112.43721"
             id="tspan200">design</tspan><tspan
             x="0 4.202693 7.9820929 12.184786 16.387478 22.683958 24.362013 28.141413 30.24276 32.344105 36.546799 40.749493 44.528893 46.630238 48.308292 52.510983 56.713676"
             y="-9.4487896"
             id="tspan202">dynamic functions</tspan></text></g><path
         d="m 1651.19,1961.85 h 1417.28 v 170.073 H 1651.19 Z"
         style="fill:#ffffff;fill-opacity:1;fill-rule:evenodd;stroke:none"
         id="path206" /><path
         d="m 1651.19,1961.85 h 1417.28 v 170.073 H 1651.19 Z"
         style="fill:none;stroke:#000000;stroke-width:4.72425;stroke-linecap:butt;stroke-linejoin:round;stroke-miterlimit:10;stroke-dasharray:none;stroke-opacity:1"
         id="path208" /><path
         d="m 2218.1,884.725 h 566.91 v 170.073 H 2218.1 Z"
         style="fill:#ffffff;fill-opacity:1;fill-rule:evenodd;stroke:none"
         id="path210" /><path
         d="m 2218.1,884.725 h 566.91 v 170.073 H 2218.1 Z"
         style="fill:none;stroke:#000000;stroke-width:4.72425;stroke-linecap:butt;stroke-linejoin:round;stroke-miterlimit:10;stroke-dasharray:none;stroke-opacity:1"
         id="path212" /><g
         id="g214"
         transform="scale(10)"><text
           transform="matrix(1,0,0,-1,199.133,169.73)"
           style="font-variant:normal;font-weight:normal;font-size:7.5588px;font-family:Helvetica;-inkscape-font-specification:Helvetica;writing-mode:lr-tb;fill:#000000;fill-opacity:1;fill-rule:nonzero;stroke:none"
           id="text218"><tspan
             x="0 4.202693 7.9820929 10.083439 14.286132 16.803213 21.005905 25.208597 26.886652 28.987997 31.089344 35.292038 39.494732 43.274132 45.375477 47.053532 51.256222 55.458916"
             y="0"
             id="tspan216">external functions</tspan></text></g><path
         d="m 1084.28,1394.94 h 736.983 v 170.073 H 1084.28 Z"
         style="fill:#ffffff;fill-opacity:1;fill-rule:evenodd;stroke:none"
         id="path220" /><path
         d="m 1084.28,1394.94 h 736.983 v 170.073 H 1084.28 Z"
         style="fill:none;stroke:#000000;stroke-width:4.72425;stroke-linecap:butt;stroke-linejoin:round;stroke-miterlimit:10;stroke-dasharray:none;stroke-opacity:1"
         id="path222" /><path
         d="m 177.219,1961.85 h 1077.13 v 170.073 H 177.219 Z"
         style="fill:#ffffff;fill-opacity:1;fill-rule:evenodd;stroke:none"
         id="path224" /><path
         d="m 177.219,1961.85 h 1077.13 v 170.073 H 177.219 Z"
         style="fill:none;stroke:#000000;stroke-width:4.72425;stroke-linecap:butt;stroke-linejoin:round;stroke-miterlimit:10;stroke-dasharray:none;stroke-opacity:1"
         id="path226" /><g
         id="g228"
         transform="scale(10)"><text
           transform="matrix(1,0,0,-1,102.758,47.8439)"
           style="font-variant:normal;font-weight:normal;font-size:7.5588px;font-family:Helvetica;-inkscape-font-specification:Helvetica;writing-mode:lr-tb;fill:#000000;fill-opacity:1;fill-rule:nonzero;stroke:none"
           id="text246"><tspan
             x="0 4.202693 8.405386 12.184786 13.862839 17.642239 19.320293 23.522985 27.725677"
             y="0"
             id="tspan230">decisions</tspan><tspan
             x="164.40401 170.70049 174.90317 179.10587 183.30856 187.51125"
             y="-91.650497"
             id="tspan232">manual</tspan><tspan
             x="164.40401 170.70049 174.90317 178.68257 182.88527 187.08795 191.29065 192.9687 196.74811 200.95079"
             y="-68.974098"
             id="tspan234">mechanized</tspan><tspan
             x="119.0512 124.09292 129.55037 135.43112 140.47284 145.51456"
             y="-80.312302"
             id="tspan236">PROVER</tspan><tspan
             x="51.021999 55.224693 59.427387 63.630077 65.308128 69.510826 73.713516 75.814865 80.017555 83.796959 87.576355 91.779053 98.075531 102.27822 104.37957 106.05762 110.26031 114.46301 -28.3454 -24.142708 -19.940014 -15.737322 -14.059268 -9.856575 -5.6538825 -3.552536 0.6501568 4.8528495 6.954196 8.6322498 12.834943 14.512996 16.614342 18.292397 22.495089 26.697783"
             y="-63.305"
             id="tspan238">adding assumptionsadding definitions</tspan><tspan
             x="-62.360001 -57.318279 -55.216934 -48.920452 -43.463001 -39.260307 -34.218586 -29.600161 -23.719414"
             y="-80.312302"
             id="tspan240">SIMULATOR</tspan><tspan
             x="-39.683601 -35.480907 -31.701508 -30.023453 -25.820761 -21.618069 -19.516722 -15.314029 -11.111336 -9.0099897 -4.8072968 -2.7059505 -0.60460401 1.9124764 6.115169"
             y="35.904701"
             id="tspan242">using data from</tspan><tspan
             x="-39.683601 -35.480907 -31.278214 -27.075521 -25.397469 -23.719414 -19.940014 -15.737322 -13.635975 -11.957922 -7.755229 -3.552536 -1.4511896 2.7515032 6.954196 13.250676 17.453369 19.131422"
             y="45.35321"
             id="tspan244">application domain</tspan></text><text
           transform="matrix(1,0,0,-1,227.4784,94.14119)"
           style="font-variant:normal;font-weight:normal;font-size:9.4485px;font-family:Helvetica;-inkscape-font-specification:Helvetica;writing-mode:lr-tb;fill:#000000;fill-opacity:1;fill-rule:nonzero;stroke:none"
           id="text262"><tspan
             x="0 6.3021493 11.555515 14.701866 16.799433 19.426117 21.523684 26.247932 31.501299 34.127983 36.225548 41.478916"
             y="0"
             id="tspan248">Verification</tspan><tspan
             x="-56.691002 -50.388851 -45.135483 -39.882118 -37.78455 -35.686985 -30.962734 -25.709368 -23.082685 -20.985119 -15.731752 -10.478387 -7.8517036 -1.0298865 4.2234793 12.09408 17.347446 19.445013 24.69838 27.325062 33.627213 38.880577 44.133942 50.955761 53.053326 58.306694 63.560059 68.813423"
             y="-107.713"
             id="tspan250">Application Domain Knowledge</tspan><tspan
             x="-113.382 -106.03107 -102.88472 -97.631348 -92.377983 -87.124619 -81.871254 -79.244568 -71.37397 -66.120605 -60.867237 -55.613873"
             y="-51.021999"
             id="tspan252">Ground Model</tspan><tspan
             x="-204.0876 -201.46092 -196.20755 -193.58087 -188.3275 -185.18115 -177.31055 -172.05719 -169.95963 -167.33293 -160.51112 -155.25775 -150.00438 -144.75102 -142.65346 -139.5071 -134.25374 -126.38313 -121.12977 -115.8764 -113.24972"
             y="-107.713"
             id="tspan254">Informal Requirements</tspan><tspan
             x="-93.540604 -86.718781 -81.465416 -76.212051"
             y="73.697998"
             id="tspan256">Code</tspan><tspan
             x="-204.0876 -197.78545 -192.53209 -190.43452 -188.33694 -183.08359 -177.83022 -175.20354 -173.10597 -167.8526"
             y="-0.00030000001"
             id="tspan258">Validation</tspan><tspan
             x="-85.036598"
             y="-107.7133"
             id="tspan260">+</tspan></text></g></g></g></svg>
