<?xml version="1.0" encoding="UTF-8" standalone="no"?>
<svg
   width="300"
   height="54.320316"
   viewBox="0 0 300 54.320316"
   version="1.1"
   id="svg7"
   xmlns="http://www.w3.org/2000/svg"
   xmlns:svg="http://www.w3.org/2000/svg">
  <defs
     id="defs7" />
  <g
     id="g20"
     transform="translate(-22.000565,-383.49228)">
    <path
       id="path92"
       style="fill:#9ec0f6;fill-opacity:1;stroke-width:1.13421"
       d="m 244.29744,383.49228 c -0.0112,0.27411 -0.0751,0.15744 -0.0801,0.45118 -0.0198,1.33093 -0.0693,2.86427 -0.0977,3.94531 l -0.12304,2.27344 -0.79102,-0.0254 -0.35742,0.35351 1.07422,0.0254 -0.0742,0.6582 -1.1211,0.0312 -0.10351,0.35938 0.80078,0.082 0.01,0.68945 -1.12891,0.0508 1.55273,3.6621 -0.44922,19.66016 -0.43164,-0.002 0.004,-0.54883 -0.8457,0.0254 v -6.39648 l -0.35547,-0.42579 -4.06055,0.1504 -0.4668,0.65234 0.0176,5.69141 c -1.0668,0.0583 -2.07754,0.0428 -3.11133,0.0684 l -0.0351,-2.79882 -3.46485,-0.0254 0.0195,-1.40625 -0.69336,-0.0254 v -0.57618 h -3.63282 c 0,0 -0.0219,0.81939 -0.0547,1.95703 -1.19633,-0.004 -4.47461,0.0508 -4.47461,0.0508 0,0 0.0395,3.33337 0.0195,3.81054 -0.86728,-0.0283 -2.54883,-0.10156 -2.54883,-0.10156 -0.0641,-0.50375 0.0399,-0.78294 -0.20508,-1.5293 -0.14527,-0.27716 -0.4518,-0.26641 -0.67383,0.25196 l -0.0918,1.20312 h -4.79297 l -0.0312,-0.48437 -1.4668,-0.0176 0.0215,0.47851 -0.67774,0.0469 -0.008,-0.83984 -0.31641,0.0137 -0.01,0.85351 -1.21875,-0.0508 -0.56055,-0.004 -0.0352,-0.375 -1.65039,-0.0996 -0.0566,0.375 -0.57812,-0.0234 -0.73242,-0.0234 v 0.4043 l -0.4668,0.0215 v -0.60351 h -0.74805 c 0.0898,0.8362 -0.12915,0.73547 -0.93945,0.73047 v -0.73829 l -0.79297,-1.26367 -1.33984,0.0254 -0.69727,-0.0254 -3.4707,-0.0762 -2.22461,-0.10547 -0.0391,-10.63086 -0.67774,-0.20312 -0.88867,0.0137 v -0.69727 l -2.98047,-0.0488 0.0215,0.79296 -1.01954,0.0137 -0.0371,5.43164 -1.54687,0.0273 -0.0566,4.95117 -0.50977,-0.0254 v 0.32813 l -0.33984,0.0254 -0.0176,-0.48047 -0.96289,0.0254 v -0.93359 h -1.09375 l -0.0371,1.00976 -0.96289,0.0508 -0.0371,-0.50586 -0.98242,0.0254 -0.0371,0.58203 -2.01758,-0.0762 -0.0371,-1.08593 -1.30273,0.0254 v -1.61719 l -0.79297,-0.0254 v 0.45508 l -2.15039,0.0234 0.0195,-0.40234 -0.4707,-0.0254 -0.0391,0.42773 -3.92187,0.0508 -0.0371,1.33985 0.0566,3.57031 -5.05859,-0.14258 -0.59571,-2.08984 c -0.16523,0.18283 -0.3814,0.003 -0.3457,-0.55469 h -0.45312 l -0.0371,-0.55664 -0.72657,-0.44141 -0.73437,-0.0645 -0.01,-0.60547 -0.5625,0.0352 -0.002,0.63476 c -0.33949,0.0122 -0.68689,0.0804 -1.07617,0.49219 l 0.0195,-0.5039 -0.54883,-0.0508 c 0.0578,0.46359 -0.13258,0.62999 -0.52734,0.55469 l -0.0566,-0.83398 c -0.34479,0.62162 -0.35186,0.32315 -0.54688,-0.32813 -0.0717,-0.57883 -0.65582,0.41473 -0.64062,0.32813 0.0493,-0.27631 -0.67202,-0.61224 -0.69922,-0.17578 -0.43127,0.23459 -0.44295,0.4121 -0.37695,0.58007 0.11909,0.28964 0.40669,0.67089 0.0566,0.70899 -0.0995,0.12706 -0.10657,0.0953 -0.0195,0.9082 -0.12974,-0.90211 -0.37849,-0.61068 -0.60351,-0.55469 -0.48902,-0.1 -0.37362,0.26235 -0.54688,0.4043 0.14976,0.71576 -0.27299,0.51158 -0.60351,0.45508 -0.14,-0.39107 -0.34008,0.0324 -0.52735,0.27734 0,0 -0.33941,-0.1768 -0.32031,-0.35351 0.0188,-0.17694 0,-1.69336 0,-1.69336 l -0.71679,-0.45508 v -0.75781 l -0.67969,-0.0254 0.0195,-0.30274 -0.81055,-0.0254 -0.041,0.55664 -0.375,0.40235 h -0.96485 l -0.11133,0.33007 -0.39648,0.4043 -0.0391,0.60547 h -0.77149 c -0.35294,-0.0635 -0.45496,-0.35129 -0.50976,-0.68164 l -2.26367,-0.0254 -0.0566,-0.85938 -0.28321,-0.50586 -0.11328,-2.32421 -0.13281,1.94531 -0.20703,-1.94531 -0.0723,1.9707 -0.26562,0.12695 0.0176,1.56641 -0.37695,0.15234 -0.0762,0.47852 c 0.0153,0.5927 -0.29057,0.81619 -0.62109,1.01172 l -0.79297,-0.0254 -0.0566,-1.16211 -0.28125,-0.45508 c 0.0279,-0.32608 0.10556,-0.68595 -0.0566,-0.88477 -0.0687,0.64408 -0.42806,1.7724 -0.35352,0.57032 l -0.13672,-0.77149 c -0.0503,-0.91787 -0.16687,0.30919 -0.26367,0.88281 l -0.0566,-1.06054 c -0.0255,-0.0974 0.0578,-0.53554 -0.39649,0.70703 -0.0357,-0.34211 0.26816,-1.93006 -0.13085,-0.9336 -0.44752,1.74727 -0.38173,0.91991 -0.45313,0.78321 l -0.11328,-0.78321 c -0.31076,-0.26801 -0.30065,0.32165 -0.37695,0.68164 0,0 -0.15437,-0.34458 -0.22657,-0.42968 -0.35092,-0.41318 -0.0404,1.4537 0.0371,1.08593 0.15178,0.44025 -0.0575,0.7391 -0.22656,0.4043 -0.0436,-0.0863 -0.16992,0.12695 -0.16992,0.12695 l -0.41406,0.0508 -0.0371,-1.49024 -2.01953,-0.0508 0.0195,-0.25391 -0.84961,-0.0254 -0.0176,0.38086 -1.96289,0.0488 -0.13086,0.42969 -3.88672,-0.0254 -0.0195,-0.45313 h -0.56641 l -0.0547,-0.35547 -0.39649,-0.0254 -0.0176,-0.58007 h -0.47265 l 0.0176,-1.43946 -0.49023,-0.0254 v 0.42969 l -1.47266,0.0254 -0.0371,1.00977 -0.37695,-0.0508 0.0195,-7.07421 -1.98047,-0.15235 -3.31054,-0.0488 -0.0254,-1.86328 -0.89453,-0.19726 -1.35547,-0.0879 -0.0195,-0.97266 -1.03516,-0.0137 -0.0371,5.98828 -1.83008,0.0254 0.0195,0.50391 c 0.60777,3.66459 -0.73908,3.56299 -2.15039,3.33593 l -0.64062,-1.38867 -2.22657,-0.0254 -0.0547,-1.41601 -0.33985,-0.0762 -0.0371,0.85938 -0.66015,0.0762 -0.13281,0.27734 -0.49024,-0.0488 -0.0195,-0.45508 -1.20703,-0.0508 0.0195,-0.68164 -0.35938,0.0234 -0.0195,0.53125 -0.58398,-0.0254 v 0.45508 h -0.67969 l 0.0195,2.88086 -4.54492,-0.12695 -0.0371,0.3789 -1.20703,-0.0254 -0.0664,-1.64258 h -0.29296 l -0.0195,1.2129 -0.88476,-0.0508 -0.0391,-1.00976 -1.98047,-0.58203 -6.035159,0.0762 -3.583985,-0.0254 -13.5625,3.66406 -6.675781,-0.22851 -6.771484,-3.61133 0.01758,-5.76172 -4.451172,-0.0762 -0.01758,6.46875 -1.8125,-1.13672 -0.660156,-0.63281 -4.677735,-0.35352 -0.791015,-0.20117 -0.339844,-0.63281 -0.03711,-1.13672 c 0.164766,-0.89122 -0.723788,-1.35552 -0.642578,-0.0508 0.01225,1.06207 -0.03711,1.1621 -0.03711,1.1621 l -0.09375,0.45508 c -0.209013,0.26848 -0.272645,0.63399 -0.660156,0.78321 -0.432267,0.21669 -0.469801,-0.18455 -0.623047,-0.4043 -0.437294,0.0974 -0.328606,-0.32717 -0.453125,-0.5293 l -0.13086,-1.74414 c 0.131998,-0.41366 -0.627646,-1.01993 -0.623046,0.0762 0.0048,1.16321 -0.05664,1.94532 -0.05664,1.94532 l -0.416016,0.3789 -4.412109,-0.0254 -0.03906,-3.13281 h -0.451171 l -0.01953,-1.03516 -1.300781,-0.0762 -0.453125,-3.35937 -0.396484,3.10742 -0.132813,1.49023 -0.263672,0.45508 -0.01758,3.13281 -2.830078,-0.0508 -0.03711,-3.9414 -0.603516,-0.73243 -7.300781,-0.60742 c 0,10e-6 -3.489033,-0.17568 -3.564453,0.22852 -0.07546,0.40421 -0.603516,4.72461 -0.603516,4.72461 0,0 -3.447886,0.0977 -3.353516,0.0977 0.04021,0 0.04299,17.01185 0.05664,29.7461 H 321.99275 l 0.008,-24.14649 -0.004,0.30274 -2.27929,0.01 v -0.47656 H 318.649 v -0.65234 c -0.12501,-0.31413 -0.18646,-0.61588 -0.52149,-0.85352 -0.30251,0.21622 -0.46992,0.62495 -0.54492,0.87695 l -0.0371,1.23047 -1.2539,-0.0488 -0.0371,1.27735 -2.33985,-0.0234 0.0566,0.52539 -0.23437,0.5332 c -0.54753,0.15929 -0.38294,-0.47489 -0.79297,-0.85937 h -1.53906 l 0.008,-0.32422 -0.39453,-0.008 0.0176,-0.94727 -0.9668,0.0117 -0.15625,0.60352 c -0.40751,-0.0569 -0.48092,0.20361 -0.54102,0.47656 l -0.17968,0.47461 -0.65235,0.0371 0.002,-1.50391 h -0.47071 v 1.42969 h -1.16015 l -0.0371,-1.20508 -0.1875,1.1543 -0.36914,0.0176 -0.16992,0.23437 -1.03321,-0.0508 c -0.0475,0.50493 -0.25012,0.76903 -0.59765,0.80273 -0.4675,0.0134 -0.70918,-0.1468 -0.82422,-0.40234 -0.01,-0.59481 0.24041,-1.29332 -0.22461,-1.70508 -0.41752,0.78209 -0.4838,0.13331 -0.67383,0 -0.26253,0.43434 -0.0624,0.86989 0,1.30469 -0.1575,-0.30329 -0.19742,-0.68302 -0.73242,-0.73242 -0.40254,0.008 -0.37188,0.48161 -0.54688,0.73242 h -1.36133 l -0.0371,-0.95117 -1.79883,-0.004 -0.0156,-3.75976 h -3.82031 v 0.55078 h 0.78711 v 2.55859 h -1.89258 v 0.58594 l -0.24805,0.0293 -0.0137,-1.21485 0.22852,0.0469 0.0156,-2.25391 -2.58203,0.0234 v 3.86328 l -1.93359,0.0176 -0.0371,-0.29492 h -2.03711 l -0.0176,-3.48633 -2.07812,-0.0508 0.0176,3.68554 -3.57421,-0.0215 c -0.27252,0.28431 -0.69154,0.32484 -1.16407,0.27344 h -0.44726 l -1.14453,-0.0488 -0.0547,-1.35547 -1.98242,-0.0254 0.0351,0.60156 -0.9707,0.0273 -0.006,-0.62109 0.17383,-0.0117 v -1.39844 l -1.49805,-0.0996 v 0.52539 l -0.69336,0.0234 0.0391,2.28321 -1.55664,0.10156 -0.0137,-0.40039 -0.9414,-0.002 0.0215,-0.35157 h -0.93555 l -0.0566,0.45313 -0.48633,-0.0156 v 0.31641 l -1.23828,-0.0254 -0.0195,-0.65039 -0.72851,-0.0274 -0.0195,-1.60351 -0.6543,0.0254 v -0.50195 l -1.47852,0.0234 0.0176,1.4043 -0.95312,0.0254 -0.0215,1.30469 -0.63672,-0.0762 -0.10937,-0.44922 -1.38672,-0.0527 v -1.10351 l -0.50586,-0.0254 -0.0195,-2.18164 h -1.7207 l 0.0176,0.70312 h -0.91797 v 1.32813 l -0.63476,0.0234 0.0176,1.65821 h -0.89844 v -0.375 l -1.64648,-0.0254 0.0176,1.00195 h -1.92773 v -2.38281 l -1.16211,-0.0254 0.0254,0.22656 0.54492,0.006 -0.0254,0.26953 -0.30078,0.0996 0.002,1.78125 -1.27343,-0.0234 -0.0547,-0.47851 -0.67578,0.0273 0.002,0.42578 -1.23828,-0.0254 h -1.62891 v -2.20703 l -0.54101,0.0508 0.0156,0.47461 h -0.35351 l -0.002,1.68164 -0.8789,-0.0488 v -0.5 l -1.23633,-0.0273 -0.43164,-19.16016 1.49805,-3.63867 -1.21485,-0.0234 -0.0996,-0.74609 c 0.309,-0.005 0.64789,-0.0414 0.97266,-0.0625 l -0.0625,-0.31641 -1.19531,-0.11328 -0.0273,-0.64453 1.0293,-0.0371 -0.23828,-0.3418 -0.89453,0.0137 -0.0645,-2.45118 c -0.0899,-1.42418 -0.0506,-2.61815 -0.0586,-3.79296 -0.003,-0.38166 -0.1027,-0.054 -0.12109,-0.42579 z" />
    <path
       d="m 99.381421,386.8458 -0.351563,3.3457 -0.5,-0.26562 0.09766,3.67969 -0.947265,8.36718 -0.351563,-1.20508 -0.5,2.14258 0.150391,1.875 -0.09766,7.23047 -1.501953,-0.0664 -0.707032,-0.18555 -0.01953,-2.07813 c -0.122364,-0.59733 0.311844,-1.2439 -0.609375,-1.72461 l -0.07031,-2.20117 -0.125,2.22656 c -0.692727,0.15395 -0.500117,1.14172 -0.636719,1.73047 l -0.0293,2.10157 -1.050781,-0.13672 0.101562,-0.9375 -0.951172,-1.00196 -1.550781,-1.87695 -6.496094,-0.46875 -1.048828,0.73633 -1.550781,0.13672 -9.294922,-0.26758 0.04883,-1.74414 -0.798828,-0.0644 -0.04883,1.875 -4.519531,-0.11133 -0.0293,-0.69141 -0.566406,-0.0391 -0.01758,0.74609 -3.947265,-0.10156 -3.3125,2.29883 -5.294922,-0.0195 -0.929688,1.83984 -0.0332,2.26367 -4.25,0.0195 -1.144531,2.04688 -0.02148,3.81055 h -0.353516 l -0.0078,0.3789 h -2.078125 l 0.0078,-0.49414 -0.369141,-0.0117 -0.01758,0.46875 -2.304687,-0.0195 0.06836,-9.05469 -8.316406,-0.0488 -0.03125,-1.14063 -3.017578,-0.0644 -0.0039,-0.96875 -2.892578,-0.0391 -0.103515,0.74023 -0.597657,1.00391 -0.01563,2.70703 c -1.424707,0.60589 -1.573958,-1.35807 -2.132812,-2.57617 l -2.308594,-0.0391 0.06836,24.7168 41.074218,-2.71875 10.044922,-0.60156 34.638665,-3.21485 17.59375,-2.14257 27.63672,-2.61133 12.29492,-0.59961 20.39453,-1.3418 c 10.91282,-0.94736 45.34739,-1.95172 56.61133,-1.86523 -2.5916,-0.46557 -27.87626,-0.46108 -30.14648,-0.58399 -2.27023,-0.12268 -4.62532,-0.37571 -6.88281,-0.36914 3.99405,-0.79013 8.09927,-1.18612 12.40625,-0.86133 l 12.44531,-0.13672 25.25976,-0.0898 -0.0215,3.34766 h 0.83203 l -0.0352,-3.35352 1.7793,-0.006 v 3.35742 h 0.83203 l -0.0508,-3.36132 26.63281,-0.0957 c 13.48247,-0.037 21.44948,-0.32843 34.78711,0.32422 l -45.67968,2.125 c -1.31354,0.27522 -11.73162,0.88116 -13.00196,0.82617 -1.46485,0.0658 -6.46877,1.07709 -9.36328,1.6543 -5.26165,0.77979 -12.43831,1.44117 -10.71875,2.63672 3.93012,5.3784 11.00214,5.87781 14.10742,6.18945 6.2243,0.89236 12.59545,0.82324 18.66993,2.72266 12.9012,2.79128 2.97291,-3.78391 18.9746,2.89258 h 28.57422 l 0.0274,-19.92774 -2.43946,-0.17969 -33.625,0.1211 -27.24804,-18.74219 -0.0117,-0.71094 h -0.4668 v 0.97657 l -0.72461,0.47461 -1.24219,-0.85157 -0.0117,-0.95312 h -0.44532 l -0.002,0.85156 -29.10742,19.0918 -14.12695,0.15625 c -2.7422,0.27615 -4.38611,0.63206 -6.60938,1.10351 l -1.86523,0.35157 -0.0176,-3.84571 -0.67969,-1.23047 -4.11133,-0.0801 -0.66992,1.24609 -0.74609,-1.78125 -3.06446,-0.01 -0.96679,1.32618 -0.33789,-0.0156 -0.082,-0.63477 -1.11132,0.0156 -0.0254,-0.7207 -1.50196,0.0195 0.0156,0.64648 -0.56055,0.0547 c 0,0 -0.0315,-0.68191 -0.043,-0.66992 0.0584,0.0249 -2.0503,-0.0158 -2.25781,0.0195 0.008,0.6604 0.0156,1.2207 0.0156,1.2207 l -1.48437,-0.0117 0.0156,-0.8457 -2.54296,0.004 -0.19922,-0.28125 -2.10938,-0.0254 -3.0957,-0.0254 -0.48633,-0.95704 -1.13281,-0.0156 -0.99024,0.0449 -0.23242,-0.19141 -0.8164,0.041 -0.22266,-0.44336 -1.37305,-0.0254 -1.13672,1.38086 -1.83789,-0.01 -1.1875,0.0586 0.11328,0.26367 -1.98632,-0.01 -0.44141,1.08789 -0.53906,-0.0195 -0.0371,-1.79101 -2.76563,-0.0391 0.0117,0.49804 -0.52734,0.0352 -0.004,6.13476 -2.26172,0.0918 -0.0371,-2.71289 -1.00195,-1.4707 -2.47266,-0.0156 -0.0254,-2.19336 -1.64843,-1.67773 -1.72071,1.53711 -0.0293,1.3457 -3.94727,0.0664 -3.90039,-0.13672 -0.30078,-1.20508 -6.49414,-0.13086 -3.10156,-0.13672 -0.19922,0.67188 -3.5,-1.81055 -5.04688,0.26758 -3.69922,-0.33399 -1.69726,1.14063 -0.15039,8.36719 v -12.25 l -2.15039,-2.14258 -0.10157,-1.74414 -0.0488,1.47265 -2.44922,1.94532 0.25195,0.33398 -0.20312,11.38281 -2.74805,-0.0703 v -6.08984 l -1.19922,-1.47266 -0.55078,0.0664 -1.29688,-0.67188 -0.85156,1.14063 -6.69922,-0.4043 -1.29687,1.47266 -1.14844,-1.53711 -0.0527,-2.47657 -0.0977,-5.35742 0.34961,-0.13086 -0.0488,-0.60547 -0.30078,-3.67968 -0.30078,1.53711 -0.652342,-7.96485 0.150392,-4.68945 -0.548829,1.00391 z m 156.183589,12.20898 -0.0117,1.88086 -15.74219,10.23243 -0.84375,-0.0293 -0.0645,-0.008 0.006,0.0859 0.006,0.5293 -9.51172,6.18164 -2.66015,0.0293 z m 0.46289,0.0996 1.10157,0.75782 -1.08789,0.70507 z m 2.44922,0.11719 26.98438,18.55664 -1.88281,0.004 -25.08204,-17.16406 z m -0.48242,0.25586 v 0.79297 l -0.59375,-0.4043 z m -0.72851,0.47461 0.72851,0.50391 v 3.46289 l -0.75976,0.47461 -1.16602,-0.81641 -0.0273,-2.82813 z m 1.23437,0.84766 24.80859,16.98828 -4.82031,0.0137 -19.93945,-13.88672 z m -2.95117,0.26562 -0.0156,2.56641 -15.4414,9.67383 0.006,-2.10157 v -0.0801 h -0.0234 z m 0.52344,2.69336 1.03125,0.7207 -1.02149,0.63477 z m -0.54297,0.0508 -0.0117,1.65235 -15.42578,9.6289 v -0.0449 -1.5625 z m 2.46484,0.29102 v 0.82226 l -0.61914,-0.43359 z m 0.5586,0 19.67382,13.70117 -1.8125,0.008 -17.84375,-12.48242 z m -1.3125,0.47461 0.7539,0.52929 v 3.35157 l -0.99609,0.64062 -0.88086,-0.61523 -0.0293,-3.19141 z m 1.33007,0.93164 17.58985,12.30078 -4.08985,0.0156 0.008,-0.0195 -13.43164,-9 -0.0234,0.0605 z m -3.05273,0.13672 -0.0137,2.58203 -15.14453,9.41015 0.041,0.11719 -4.36523,0.0488 z m -0.0176,2.75781 -0.0117,1.6582 -11.99609,7.67188 -0.61719,-0.006 -2.42187,0.0254 z m 2.49414,0.23633 v 1.15429 l -0.86133,-0.59961 z m -1.87695,0.0195 0.74609,0.52539 -0.73437,0.46875 z m 2.50976,0.3125 13.22071,8.85351 -2.36328,0.01 -10.83789,-7.58203 z m -1.6289,0.30859 0.99609,0.69531 v 3.35352 l -1.02734,0.66406 -0.80078,-0.61523 -0.0332,-3.54297 z m -1.50977,0.96289 -0.0176,3.02344 -7.74609,4.49219 -3.95508,-0.0254 z m 3.16211,0.19141 10.57227,7.40625 -4.44141,0.0137 -6.00781,-4.50586 -0.0586,0.14063 5.81641,4.36523 h -0.14648 l -2.39258,-0.0137 -3.26563,-2.50195 z m -19.62305,0.8164 0.54493,0.0195 -0.54102,0.35351 z m 0.8086,0.0312 0.14062,0.004 -0.004,2.09766 -0.92969,0.58008 -0.0117,-2.15821 z m -0.92383,0.59961 0.0117,2.15625 -6.06836,3.80079 -3.17188,0.0371 z m 16.55859,1.5625 -0.008,1.52735 -4.3418,2.80859 -3.09375,-0.0215 z m 2.52344,0.0645 v 1.27148 l -0.89844,-0.6914 z m -18.02148,0.0508 v 1.40625 l -0.92188,0.0351 -0.006,-0.86132 z m 16.19726,0.01 0.66602,0.50977 -0.6582,0.42773 z m 0.79297,0.60547 1.03125,0.79102 v 2.84961 l -1.78515,-0.0117 -0.0312,-3.11914 z m -18.03711,0.041 0.006,0.86719 v 0.0801 h 0.0625 l 1.04297,-0.0351 -4.28906,2.67773 -2.59766,0.0293 z m 16.53321,0.9375 -0.0156,2.65234 -4.04883,-0.0254 z m 3.26953,0.3789 3.01562,2.3086 -2.98242,-0.0215 z"
       style="opacity:1;fill:#3b4c5d;stroke-width:1.13289"
       id="path188" />
  </g>
</svg>
